<svg xmlns="http://www.w3.org/2000/svg" xmlns:xlink="http://www.w3.org/1999/xlink" width="500" zoomAndPan="magnify" viewBox="0 0 375 374.999991" height="500" preserveAspectRatio="xMidYMid meet" version="1.0"><defs><g/></defs><g fill="#5e17eb" fill-opacity="1"><g transform="translate(54.886225, 318.369616)"><g><path d="M 133.421875 5.75 C 115.628906 5.75 99.6875 3.96875 85.59375 0.40625 C 71.5 -3.144531 59.457031 -8.410156 49.46875 -15.390625 C 39.476562 -22.367188 31.742188 -31.125 26.265625 -41.65625 C 20.796875 -52.195312 17.648438 -64.453125 16.828125 -78.421875 L 68.96875 -94.84375 C 69.519531 -82.519531 72.597656 -72.253906 78.203125 -64.046875 C 83.816406 -55.835938 91.753906 -49.75 102.015625 -45.78125 C 112.285156 -41.8125 123.851562 -39.828125 136.71875 -39.828125 C 148.757812 -39.828125 158.953125 -41.332031 167.296875 -44.34375 C 175.640625 -47.351562 182 -51.390625 186.375 -56.453125 C 190.757812 -61.515625 192.953125 -67.054688 192.953125 -73.078125 C 192.953125 -80.191406 190.144531 -85.9375 184.53125 -90.3125 C 178.925781 -94.695312 171.46875 -98.394531 162.15625 -101.40625 C 152.851562 -104.414062 142.179688 -107.289062 130.140625 -110.03125 C 116.734375 -113.3125 103.597656 -116.796875 90.734375 -120.484375 C 77.867188 -124.179688 66.234375 -129.039062 55.828125 -135.0625 C 45.429688 -141.09375 37.15625 -148.894531 31 -158.46875 C 24.84375 -168.050781 21.765625 -180.09375 21.765625 -194.59375 C 21.765625 -211.289062 25.9375 -225.726562 34.28125 -237.90625 C 42.625 -250.09375 54.800781 -259.601562 70.8125 -266.4375 C 86.832031 -273.28125 106.335938 -276.703125 129.328125 -276.703125 C 151.765625 -276.703125 171.191406 -273.347656 187.609375 -266.640625 C 204.035156 -259.941406 216.765625 -250.363281 225.796875 -237.90625 C 234.828125 -225.457031 239.484375 -210.882812 239.765625 -194.1875 L 186.796875 -179.8125 C 186.796875 -188.300781 185.425781 -195.757812 182.6875 -202.1875 C 179.957031 -208.625 176.128906 -213.960938 171.203125 -218.203125 C 166.273438 -222.441406 160.179688 -225.65625 152.921875 -227.84375 C 145.671875 -230.039062 137.53125 -231.140625 128.5 -231.140625 C 117.820312 -231.140625 108.648438 -229.703125 100.984375 -226.828125 C 93.328125 -223.953125 87.515625 -220.253906 83.546875 -215.734375 C 79.578125 -211.222656 77.59375 -205.820312 77.59375 -199.53125 C 77.59375 -192.132812 80.601562 -186.109375 86.625 -181.453125 C 92.644531 -176.804688 100.785156 -172.910156 111.046875 -169.765625 C 121.316406 -166.617188 132.472656 -163.675781 144.515625 -160.9375 C 156.285156 -158.46875 168.257812 -155.382812 180.4375 -151.6875 C 192.613281 -148 203.96875 -143.210938 214.5 -137.328125 C 225.039062 -131.441406 233.523438 -123.503906 239.953125 -113.515625 C 246.390625 -103.523438 249.609375 -90.867188 249.609375 -75.546875 C 249.609375 -59.117188 245.226562 -44.816406 236.46875 -32.640625 C 227.71875 -20.460938 214.71875 -11.019531 197.46875 -4.3125 C 180.226562 2.394531 158.878906 5.75 133.421875 5.75 Z M 133.421875 5.75 "/></g></g></g></svg>